<svg version="1.1" id="Layer_1" xmlns="http://www.w3.org/2000/svg" x="0" y="0" viewBox="0 0 44 20" xml:space="preserve"><style>.st0,.st1{fill-rule:evenodd;clip-rule:evenodd;fill:#1e398c}.st1{fill:#00adee}</style><path class="st0" d="M6.1 7c0-.2.2-.3.3-.3h3.3c1 .1 1.7.6 1.8 2v1.8c0 .3 0 .5-.1.8-.3.9-.9 1.3-1.8 1.4H8.1v2.2s-.1.1-.3.1H6.3c-.2 0-.3-.1-.3-.3L6.1 7zm2.1 1.7H9c.2 0 .4.2.4.4v1c0 .2-.2.4-.4.4h-.8V8.7zM13 6.6h2.3c1.3.1 2.1.8 2 2.2v5.4c0 .4-.4.7-.8.7h-3c-.9 0-1.5-.7-1.6-1.4-.1-.7 0-1.5 0-2.1 0-1 .7-2.1 1.8-2.1H15c.4 0 .3-.8 0-.8h-1.9c-.2 0-.3-.1-.3-.3V6.8c-.1-.1.1-.2.2-.2zm1.3 4.7h.7c.2 0 .3.1.3.3v1.2c0 .2-.1.3-.3.3h-.7c-.2 0-.3-.1-.3-.3v-1.2c0-.2.1-.3.3-.3zM18 7v3.4c.1 1.1 1 1.9 2.1 1.9h1c.4 0 .4.7 0 .7H19c-.2 0-.3.1-.3.3v1.5c0 .2.1.3.3.3h1.9c1.6 0 2.5-.8 2.5-2.5V6.9c0-.2-.1-.3-.2-.3h-1.6c-.1 0-.2.2-.2.3V10c0 .1-.1.2-.2.2h-.8c-.2 0-.3-.1-.3-.3V7c0-.2-.1-.3-.3-.3h-1.6c-.1-.1-.2.1-.2.3z"/><path class="st1" d="M24.2 8.4V6.9c0-.2.1-.3.3-.3h.4c.9-.2 1.1-.7 1.7-1.3.3-.4.6-.5.9-.1v1.4h.8c.2 0 .3.1.3.3v1.5c0 .2-.1.3-.3.3h-.8v6c0 .2-.1.3-.3.3h-1.5c-.2 0-.3-.1-.3-.3v-6h-.9c-.1 0-.3-.1-.3-.3zM34.6 14.6c0 .2-.2.4-.4.4h-1.4c-.2 0-.4-.2-.4-.4V9.1c0-.6-1.2-.7-1.2 0v5.5c0 .2-.2.4-.4.4h-1.4c-.2 0-.4-.2-.4-.4V7c0-.2.2-.4.4-.4H31c.2 0 .4.2.4.4v.1c.8-.8 2.2-.6 2.9.2 1.4-1.7 3.7-.3 3.6 1.5v5.8c0 .2-.2.4-.4.4h-1.4c-.2 0-.4-.2-.4-.4V9.1c-.1-.8-1.2-.6-1.2 0 .1 1.8.1 3.7.1 5.5z"/></svg>